 <svg version="1.0" xmlns="http://www.w3.org/2000/svg"  width="60.000000pt" height="60.000000pt" viewBox="0 0 60.000000 60.000000"  preserveAspectRatio="xMidYMid meet">  <g transform="translate(0.000000,60.000000) scale(0.100000,-0.100000)" fill="#000000" stroke="none"> <path d="M68 574 c-36 -19 -58 -63 -58 -114 0 -54 17 -84 87 -152 81 -79 130 -95 198 -62 36 17 48 35 39 59 -8 20 -38 19 -69 -1 -37 -24 -64 -12 -133 60 -69 71 -79 109 -42 146 32 32 69 25 116 -21 44 -43 68 -46 81 -13 4 12 -9 31 -45 65 -46 45 -54 49 -99 49 -26 -1 -60 -7 -75 -16z"/> <path d="M266 420 c-33 -10 -66 -38 -66 -55 0 -7 7 -18 15 -25 13 -11 22 -10 49 5 47 26 73 15 144 -59 72 -75 81 -110 36 -145 -38 -30 -59 -26 -109 20 -46 42 -77 48 -83 15 -4 -21 48 -80 90 -102 73 -38 166 6 189 88 8 31 6 46 -9 81 -20 44 -150 177 -174 177 -7 0 -22 2 -33 5 -11 2 -33 0 -49 -5z"/> </g> </svg> 