<?xml version="1.0" encoding="utf-8"?>
<!-- Generator: Adobe Illustrator 28.0.0, SVG Export Plug-In . SVG Version: 6.00 Build 0)  -->
<svg version="1.1" id="Layer_1" xmlns="http://www.w3.org/2000/svg" xmlns:xlink="http://www.w3.org/1999/xlink" x="0px" y="0px"
	 viewBox="0 0 570 450" style="enable-background:new 0 0 570 450;" xml:space="preserve">
<style type="text/css">
	.st0{fill:#F68B1F;}
	.st1{fill:#F0BE1A;}
	.st2{fill:#E44026;}
	.st3{fill:#5AA0D7;}
	.st4{fill:#9E3F8F;}
	.st5{fill:#2479BA;}
	.st6{fill:#7BAC41;}
	.st7{fill:#00A0BF;}
	.st8{fill:#FFFFFF;}
	.st9{fill:#004B85;}
	.st10{fill:#0E4C83;}
</style>
<path class="st0" d="M152,237.7H87.3c2.8,45.5,20.9,86.9,49.3,119l45.7-45.8C165.5,290.7,154.6,265.4,152,237.7z"/>
<path class="st1" d="M199.9,328.5l-45.7,45.8c32.1,28.4,73.4,46.5,118.9,49.3v-64.7C245.3,356.3,220.1,345.3,199.9,328.5z"/>
<path class="st2" d="M182.3,139.7l-45.7-45.8c-28.3,32.1-46.5,73.5-49.3,119H152C154.5,185.2,165.5,160,182.3,139.7z"/>
<path class="st3" d="M418.8,212.9h64.7c-2.8-45.5-20.9-86.9-49.3-119l-45.8,45.8C405.3,160,416.3,185.2,418.8,212.9z"/>
<path class="st4" d="M273,91.8V27.1c-45.5,2.8-86.8,20.9-118.9,49.3l45.7,45.8C220.1,105.4,245.3,94.4,273,91.8z"/>
<path class="st5" d="M371,122.2l45.7-45.8C384.6,48,343.3,29.9,297.8,27.1v64.7C325.5,94.4,350.8,105.4,371,122.2z"/>
<path class="st6" d="M297.8,358.8v64.7c45.5-2.8,86.8-20.9,118.9-49.3L371,328.5C350.8,345.3,325.5,356.3,297.8,358.8z"/>
<path class="st7" d="M418.8,237.7c-2.5,27.7-13.5,53-30.3,73.2l45.8,45.8c28.3-32.1,46.5-73.5,49.3-119H418.8z"/>
<path class="st8" d="M127.1,297.4c1.6,0.5,6.4,1.9,12,6.1c0,0,3.5,1.7,7.1-1c3.6-2.7,3.3-6.4,3.3-6.4c-2.7-3.8-2-6.4-4.6-10.2
	c-1.8-2.6-2.9-2.6-4.8-2.3l0.9,1.3c0.6,0.8-0.6,1.7-1.2,0.9l-0.8-1.2c-0.7-1-2-0.4-3.2-0.1l1.2,1.6c0.6,0.8-0.6,1.7-1.2,0.9l-1-1.4
	c-0.7-1-2.1-0.3-3.3,0l1.2,1.7c0.6,0.8-0.6,1.7-1.2,0.9l-4.9-6.9c-1.5-2.1-4.9,0.1-3.3,2.3l7.3,10.2c-0.8-0.3-2.1-0.6-3-0.6
	C124.7,293.2,123.6,296.2,127.1,297.4L127.1,297.4z"/>
<path class="st8" d="M133.4,282v-7.5c0-0.8-0.7-1.5-1.5-1.5h-14.3c-0.8,0-1.5,0.7-1.5,1.5v27.9c0,0.8,0.7,1.5,1.5,1.5h14.3
	c0.6,0,1.1-0.4,1.4-0.9c-1.7-0.9-3.3-1.6-4.6-2.1h-9.5V276h11.3v5.5C131.5,281.2,132.6,281.6,133.4,282L133.4,282z"/>
<path class="st8" d="M441.7,171.3c2.6,0,4.6-2.1,4.6-4.6c0-2.6-2.1-4.6-4.6-4.6c-2.6,0-4.6,2.1-4.6,4.6
	C437.1,169.2,439.2,171.3,441.7,171.3z"/>
<path class="st8" d="M446.9,181.5v-5h0c0-2-1.6-3.6-3.6-3.6h-3.2c-2,0-3.6,1.6-3.6,3.6v5H446.9z"/>
<path class="st8" d="M430.3,171.3c2.1,0,3.9-1.7,3.9-3.9s-1.7-3.9-3.9-3.9c-2.1,0-3.9,1.7-3.9,3.9S428.1,171.3,430.3,171.3z"/>
<path class="st8" d="M434.6,180v-4.4c0-1.6-1.3-3-3-3h-2.6c-1.6,0-3,1.3-3,3v4.4H434.6z"/>
<path class="st8" d="M453.2,171.3c2.1,0,3.9-1.7,3.9-3.9s-1.7-3.9-3.9-3.9c-2.1,0-3.9,1.7-3.9,3.9S451.1,171.3,453.2,171.3z"/>
<path class="st8" d="M457.5,180v-4.4c0-1.6-1.3-3-3-3h-2.6c-1.6,0-3,1.3-3,3v4.4H457.5z"/>
<path class="st8" d="M441.7,138.8L426,154.2h8.4c-0.6,3.1-3,6-4.4,7.5h3.7c1.8-2.4,3.7-5.6,3.7-9v-1.4H433l8.8-8.6l8.8,8.6h-4.1v1.4
	c0,3.3,1.7,6.5,3.7,9h3.8c-1.6-1.7-3.9-4.5-4.5-7.5h8.1L441.7,138.8z"/>
<path class="st8" d="M339.9,77.8l0.2-1.6l-1.9-0.7c0-0.8-0.3-1.7-0.6-2.4l1.3-1.6l-1-1.3l-1.8,0.8c-0.6-0.5-1.3-1-2.2-1.2l-0.2-2
	l-1.6-0.2l-0.7,1.9c-0.8,0-1.7,0.3-2.4,0.6l-1.6-1.3l-1.3,1l0.8,1.8c-0.5,0.6-1,1.3-1.2,2.1l-2,0.2l-0.2,1.6l1.9,0.7
	c0.1,0.9,0.3,1.7,0.7,2.4l-1.3,1.6l1,1.3l1.8-0.8c0.6,0.5,1.4,1,2.2,1.2l0.2,2l1.6,0.2l0.7-1.9c0.9,0,1.7-0.3,2.4-0.6l1.6,1.3l1.3-1
	l-0.8-1.8c0.5-0.6,1-1.3,1.2-2.2L339.9,77.8L339.9,77.8z M331.4,79.1c-1.8-0.2-3-1.9-2.8-3.6c0.2-1.8,1.9-3,3.6-2.8
	c1.8,0.2,3,1.9,2.8,3.6S333.2,79.4,331.4,79.1z"/>
<path class="st8" d="M364.5,70.4l2.6-1.2l-0.6-2.6l-2.8-0.1c-0.2-0.6-0.5-1.1-0.8-1.6l1.6-2.3l-1.8-2l-2.5,1.4c-0.5-0.4-1-0.7-1.5-1
	l0.2-2.8l-2.5-0.8l-1.5,2.4c-0.3,0-0.7-0.1-1-0.1c-0.3,0-0.5,0-0.8,0l-1.2-2.6l-2.6,0.6l-0.1,2.8c-0.6,0.2-1.1,0.5-1.6,0.8l-2.3-1.6
	l-2,1.8l1.4,2.5c-0.4,0.5-0.7,1-1,1.5l-2.8-0.2l-0.8,2.5l2.4,1.5c-0.1,0.6-0.1,1.2-0.1,1.8l-2.6,1.2l0.6,2.6l2.8,0.1
	c0.2,0.6,0.5,1.1,0.8,1.6l-1.6,2.3l1.8,2l2.5-1.4c0.5,0.4,1,0.7,1.5,1l-0.2,2.8l2.5,0.8l1.5-2.4c0.3,0,0.7,0.1,1,0.1
	c0.3,0,0.5,0,0.8,0l1.2,2.5l2.6-0.6l0.1-2.8c0.6-0.2,1.1-0.5,1.6-0.8l2.3,1.6l2-1.8l-1.4-2.5c0.4-0.5,0.7-1,1-1.5l2.8,0.2l0.8-2.5
	l-2.4-1.5C364.5,71.6,364.5,71,364.5,70.4L364.5,70.4z M358,75.7c-2.8,2.5-7,2.3-9.5-0.5c-2.5-2.8-2.3-7,0.5-9.5
	c2.8-2.5,7-2.3,9.5,0.5C361,69,360.8,73.3,358,75.7z"/>
<path class="st8" d="M238.4,382.2l-4.1,4.3c-5.8-6-14.9-6-20.7,0l-4.1-4.3C217.4,373.9,230.3,373.9,238.4,382.2z"/>
<path class="st8" d="M230.3,390.5l-6.5,6.7l-6.5-6.7C221,386.7,226.6,386.7,230.3,390.5L230.3,390.5z"/>
<path class="st8" d="M245.6,374.8l-4,4.1c-9.9-10.2-25.7-10.2-35.6,0l-4-4.1C214.2,362.4,233.5,362.4,245.6,374.8z"/>
<path class="st8" d="M360.6,396.6h-14.2v-3.6l8.5-8.5v-6c0.4-0.3,0.7-0.8,0.7-1.4c0-1-0.8-1.8-1.8-1.8S352,376,352,377
	c0,0.6,0.3,1.1,0.7,1.4v5.1l-8.5,8.5v4.5h-6.4v-5.3c0.4-0.3,0.7-0.8,0.7-1.4c0-1-0.8-1.8-1.8-1.8c-1,0-1.8,0.8-1.8,1.8
	c0,0.6,0.3,1.1,0.7,1.4v5.3h-5.6v-15.2h6.3l2.4,2.4c0,0.1,0,0.2,0,0.3c0,1,0.8,1.8,1.8,1.8c1,0,1.8-0.8,1.8-1.8c0-1-0.8-1.8-1.8-1.8
	c-0.1,0-0.2,0-0.3,0l-3-3h-7.1v-4.9h11.3l2.4-2.1c0.1,0,0.3,0,0.4,0c1,0,1.8-0.8,1.8-1.8s-0.8-1.8-1.8-1.8s-1.8,0.8-1.8,1.8
	c0,0,0,0.1,0,0.1l-1.8,1.5h-10.5V366h26c1.5,1.5,3,3,4.5,4.5v19.3h-4.4c-0.3-0.4-0.8-0.7-1.4-0.7c-1,0-1.8,0.8-1.8,1.8
	c0,1,0.8,1.8,1.8,1.8c0.6,0,1.1-0.3,1.4-0.7h4.4L360.6,396.6L360.6,396.6z"/>
<path class="st8" d="M143.7,150.5c0.7,0.9,1.3,1.9,1.8,2.9l7.5-7.1c-0.6-0.9-1.3-1.8-2.1-2.6L143.7,150.5z"/>
<path class="st8" d="M129.3,158.7c-1.2,0.2-2.4,0.6-3.4,1.5c-0.1,0-0.1,0.1-0.2,0.2c-0.4,0.3-0.6,0.7-0.9,1.2c-0.5,1.1-1.2,2-2,2.8
	l-10.1,9.7c0.6,0.9,1.3,1.8,2.1,2.6l10.3-9.9C127.8,164.1,128.6,161.3,129.3,158.7L129.3,158.7z"/>
<path class="st8" d="M140.1,147.8c1.1,0.5,2,1.1,2.9,1.9l7.1-6.8c-0.8-0.8-1.6-1.5-2.5-2.2L140.1,147.8z"/>
<path class="st8" d="M122.6,162.4c0.3-0.4,0.6-0.9,0.8-1.3c0.3-0.6,0.7-1.2,1.3-1.8c0.1-0.1,0.2-0.1,0.2-0.2
	c1.6-1.4,3.8-1.7,5.1-1.9c0.3,0,0.6-0.1,0.8-0.1c2.5-0.5,5-1.1,7.5-3.2c-0.3-0.2-0.6-0.4-0.9-0.5c-0.5-0.2-1.1-0.3-1.6-0.4
	c-1.8,0-4,0.4-5.7,0.8c-2.5,0.6-4.9,1.1-7.1,3.2c-1.7,1.6-2.7,3.9-2.8,6.3c0,0.5,0,0.9,0.1,1.4l1.1-1.1
	C121.9,163.2,122.3,162.8,122.6,162.4L122.6,162.4z"/>
<path class="st8" d="M131.1,168.1c0.5-0.3,0.9-0.5,1.2-0.8c0.1,0,0.1-0.1,0.2-0.2c0.9-1,1.3-2.2,1.6-3.4c-2.7,0.6-5.4,1.2-8.2,3.8
	l-10.3,9.9c0.8,0.8,1.7,1.5,2.5,2.2l10-9.7C129.1,169.2,130,168.5,131.1,168.1z"/>
<path class="st8" d="M136.1,148.2c-1.8,0-3.6,0.4-5.1,1.4c-0.5,0.3-0.9,0.7-1.4,1.1c-0.7,0.6-1.2,1.4-1.7,2.2
	c1.8-0.5,3.8-0.9,5.2-1.1l0.3,0c2.1-0.3,4.6-0.5,6.5,1.5c1.9,2,1.7,4.5,1.2,6.6l-0.1,0.3c-0.3,1.4-0.8,3.4-1.3,5.2
	c0.8-0.4,1.6-1,2.3-1.6c0.4-0.4,0.8-0.9,1.1-1.3c1-1.5,1.6-3.2,1.6-5c0.1-2.4-0.8-4.7-2.5-6.4C140.7,149.3,138.5,148.3,136.1,148.2z
	"/>
<path class="st8" d="M139.8,155.7c-0.1-0.3-0.3-0.6-0.5-0.9c-2.2,2.4-2.9,5-3.5,7.4c-0.1,0.2-0.1,0.5-0.2,0.8
	c-0.3,1.4-0.7,3.5-2.2,5c-0.1,0.1-0.2,0.2-0.2,0.2c-0.6,0.6-1.2,0.9-1.9,1.2c-0.4,0.2-0.9,0.5-1.3,0.8c-0.4,0.3-0.8,0.6-1.2,1
	l-1.1,1.1c0.5,0.1,0.9,0.1,1.4,0.1c2.4,0.1,4.7-0.9,6.4-2.5c2.2-2.1,2.8-4.5,3.5-7c0.5-1.7,1.1-3.9,1.1-5.7
	C140.1,156.8,140,156.2,139.8,155.7L139.8,155.7z"/>
<path class="st8" d="M443.4,284.7c-0.4,2.5-2.7,4.3-5.3,4c-2.6-0.4-4.3-2.7-3.9-5.3c0.4-2.6,2.7-4.3,5.3-4
	C442,279.8,443.7,282.1,443.4,284.7z"/>
<path class="st8" d="M453.7,285.3c-0.2-0.3-0.2-0.6-0.3-1c-0.2-8-6.8-14.2-14.9-14.2c-8.1,0-14.8,6.4-14.8,14.7
	c0,5.8,3.8,9.6,6,11.4c0.5,0.4,0.9,1.1,0.9,1.8v8.9l13.6-0.2v-3.5c0-1.3,1-2.3,2.3-2.3h5.5l0.1-7.8c0-0.8,0.4-1.5,1-1.9l2.7-1.7
	L453.7,285.3L453.7,285.3z M447.2,287.9c-0.3,0.8-0.8,1.5-1.3,2.2c-0.8-0.8-2.1-0.9-3-0.2c-0.9,0.7-1.2,2-0.6,2.9
	c-0.8,0.3-1.6,0.6-2.5,0.6c0-1.1-0.8-2.1-1.9-2.3c-1.1-0.2-2.2,0.6-2.5,1.6c-0.8-0.3-1.5-0.8-2.2-1.3c0.8-0.8,0.9-2.1,0.3-3
	c-0.7-0.9-2-1.2-2.9-0.6c-0.3-0.8-0.5-1.6-0.6-2.5c1.1,0,2.1-0.8,2.3-2c0.2-1.1-0.6-2.2-1.6-2.5c0.3-0.8,0.8-1.5,1.3-2.2
	c0.8,0.8,2.1,0.9,3,0.2c0.9-0.7,1.2-2,0.6-2.9c0.8-0.3,1.6-0.6,2.5-0.6c0,1.1,0.8,2.1,1.9,2.3c1.1,0.2,2.2-0.6,2.5-1.6
	c0.8,0.3,1.5,0.8,2.2,1.3c-0.8,0.8-0.9,2.1-0.2,3c0.7,0.9,2,1.2,2.9,0.6c0.3,0.8,0.5,1.6,0.6,2.5c-1.1,0-2.1,0.8-2.3,2
	C445.4,286.5,446.2,287.6,447.2,287.9L447.2,287.9z"/>
<path class="st8" d="M242.3,66.7l-4-2.3c-0.6-0.4-1.4-0.4-2,0l-4,2.3c-0.6,0.4-1,1-1,1.7v4.7c0,0.7,0.4,1.4,1,1.7l4,2.3
	c0.6,0.4,1.4,0.4,2,0l4-2.3c0.6-0.4,1-1,1-1.7v-4.7C243.3,67.7,242.9,67,242.3,66.7z"/>
<path class="st8" d="M215.4,74.8c0.6-0.4,1-1,1-1.7v-4.7c0-0.7-0.4-1.4-1-1.7l-4-2.3c-0.6-0.4-1.4-0.4-2,0l-4,2.3
	c-0.6,0.4-1,1-1,1.7v4.7c0,0.7,0.4,1.4,1,1.7l4,2.3c0.6,0.4,1.4,0.4,2,0L215.4,74.8z"/>
<path class="st8" d="M222.2,78.5l-4-2.3c-0.6-0.4-1.4-0.4-2,0l-4,2.3c-0.6,0.4-1,1-1,1.7v4.7c0,0.7,0.4,1.4,1,1.7l4,2.3
	c0.6,0.4,1.4,0.4,2,0l4-2.3c0.6-0.4,1-1,1-1.7v-4.7C223.2,79.5,222.8,78.9,222.2,78.5z"/>
<path class="st8" d="M222.2,54.9l-4-2.3c-0.6-0.4-1.4-0.4-2,0l-4,2.3c-0.6,0.4-1,1-1,1.7v4.7c0,0.7,0.4,1.4,1,1.7l4,2.3
	c0.6,0.4,1.4,0.4,2,0l4-2.3c0.6-0.4,1-1,1-1.7v-4.7C223.2,55.9,222.8,55.2,222.2,54.9z"/>
<path class="st8" d="M223.8,66.7l3.5,2v4.1l-3.5,2l-3.5-2v-4.1L223.8,66.7z M223.8,64.1c-0.3,0-0.7,0.1-1,0.3l-4,2.3
	c-0.6,0.4-1,1-1,1.7V73c0,0.7,0.4,1.4,1,1.7l4,2.3c0.3,0.2,0.7,0.3,1,0.3c0.3,0,0.7-0.1,1-0.3l4-2.3c0.6-0.4,1-1,1-1.7v-4.7
	c0-0.7-0.4-1.4-1-1.7l-4-2.3C224.5,64.2,224.2,64.1,223.8,64.1z"/>
<path class="st8" d="M230.5,78.5l3.5,2v4.1l-3.5,2l-3.5-2v-4.1L230.5,78.5z M230.5,75.9c-0.3,0-0.7,0.1-1,0.3l-4,2.3
	c-0.6,0.4-1,1-1,1.7v4.6c0,0.7,0.4,1.4,1,1.7l4,2.3c0.3,0.2,0.7,0.3,1,0.3s0.7-0.1,1-0.3l4-2.3c0.6-0.4,1-1,1-1.7v-4.6
	c0-0.7-0.4-1.4-1-1.7l-4-2.3C231.2,76,230.9,75.9,230.5,75.9z"/>
<path class="st9" d="M376.7,25.3c3.1,0,5.3,2.3,5.3,5.3c0,3.1-2.2,5.3-5.3,5.3c-3.1,0-5.3-2.3-5.3-5.3
	C371.4,27.6,373.6,25.3,376.7,25.3z M376.7,26.9c-2.1,0-3.4,1.6-3.4,3.7c0,2.1,1.3,3.7,3.4,3.7c2.1,0,3.4-1.6,3.4-3.7
	C380.1,28.5,378.7,26.9,376.7,26.9z"/>
<path class="st9" d="M385.3,38.6h-1.6V28.3h1.6v1c0.6-0.7,1.4-1.2,2.4-1.2c1.9,0,3.3,1.5,3.3,3.9c0,2.5-1.4,3.9-3.3,3.9
	c-0.9,0-1.8-0.4-2.4-1.2V38.6L385.3,38.6z M387.2,29.6c-0.8,0-1.6,0.4-1.9,1v3c0.4,0.5,1.2,1,1.9,1c1.3,0,2.1-1,2.1-2.5
	C389.3,30.6,388.5,29.6,387.2,29.6z"/>
<path class="st9" d="M395.9,28.1c2.2,0,3.7,1.7,3.7,4.1v0.4h-5.8c0.1,1.1,1,2.1,2.4,2.1c0.7,0,1.6-0.3,2.1-0.8l0.7,1.1
	c-0.7,0.7-1.8,1.1-3,1.1c-2.2,0-3.9-1.6-3.9-3.9C392.1,29.9,393.7,28.1,395.9,28.1L395.9,28.1z M393.8,31.4h4.2c0-0.9-0.6-2-2.1-2
	C394.5,29.5,393.9,30.5,393.8,31.4L393.8,31.4z"/>
<path class="st9" d="M401.2,35.8v-7.5h1.6v1.1c0.6-0.7,1.4-1.3,2.4-1.3v1.6c-0.1,0-0.3,0-0.5,0c-0.7,0-1.6,0.5-1.9,1v5.1L401.2,35.8
	L401.2,35.8z"/>
<path class="st9" d="M411.1,35.8V35c-0.6,0.6-1.4,1-2.4,1c-1.2,0-2.6-0.8-2.6-2.5c0-1.7,1.4-2.4,2.6-2.4c1,0,1.9,0.3,2.4,1v-1.1
	c0-0.9-0.7-1.4-1.7-1.4c-0.8,0-1.6,0.3-2.2,0.9l-0.7-1.1c0.9-0.8,2-1.2,3.1-1.2c1.7,0,3.1,0.7,3.1,2.7v5H411.1z M411.1,33
	c-0.4-0.5-1.1-0.8-1.8-0.8c-0.9,0-1.6,0.5-1.6,1.3c0,0.8,0.7,1.3,1.6,1.3c0.7,0,1.4-0.3,1.8-0.8V33z"/>
<path class="st9" d="M415.2,34.1v-4.3H414v-1.4h1.2v-2h1.6v2h1.5v1.4h-1.5v3.9c0,0.5,0.3,0.9,0.7,0.9c0.3,0,0.6-0.1,0.7-0.3l0.4,1.2
	c-0.3,0.3-0.8,0.5-1.5,0.5C415.9,36,415.2,35.3,415.2,34.1L415.2,34.1z"/>
<path class="st9" d="M419.6,26.1c0-0.6,0.5-1,1-1c0.5,0,1,0.4,1,1c0,0.6-0.4,1-1,1C420,27.1,419.6,26.6,419.6,26.1z M419.8,35.8
	v-7.5h1.6v7.5H419.8z"/>
<path class="st9" d="M423.1,32c0-2.1,1.5-3.9,3.8-3.9c2.4,0,3.9,1.8,3.9,3.9c0,2.1-1.5,3.9-3.9,3.9C424.5,36,423.1,34.2,423.1,32z
	 M429.1,32c0-1.3-0.8-2.5-2.2-2.5s-2.2,1.2-2.2,2.5c0,1.3,0.8,2.5,2.2,2.5C428.3,34.5,429.1,33.4,429.1,32z"/>
<path class="st9" d="M437.4,35.8v-4.7c0-1.2-0.6-1.5-1.5-1.5c-0.8,0-1.5,0.5-1.9,1v5.2h-1.6v-7.5h1.6v1c0.5-0.6,1.4-1.2,2.6-1.2
	c1.6,0,2.4,0.9,2.4,2.4v5.3H437.4L437.4,35.8z"/>
<path class="st9" d="M441.2,33.6c0.5,0.5,1.6,1.1,2.5,1.1c1,0,1.5-0.4,1.5-0.9c0-0.6-0.8-0.9-1.7-1.1c-1.3-0.3-2.8-0.6-2.8-2.3
	c0-1.2,1.1-2.3,2.9-2.3c1.3,0,2.2,0.4,2.9,1.1l-0.7,1.1c-0.4-0.5-1.3-0.9-2.2-0.9c-0.9,0-1.4,0.3-1.4,0.8c0,0.6,0.7,0.8,1.6,1
	c1.3,0.3,2.9,0.6,2.9,2.4c0,1.3-1.1,2.3-3.1,2.3c-1.3,0-2.4-0.4-3.2-1.2L441.2,33.6L441.2,33.6z"/>
<path class="st9" d="M491.8,156.9l-2-7.6l-2,7.6h-1.9l-3-10.3h2l2,8l2.1-8h1.4l2.1,8l2-8h2l-2.9,10.3H491.8L491.8,156.9z"/>
<path class="st9" d="M496.7,153.2c0-2.1,1.5-3.9,3.8-3.9c2.4,0,3.9,1.8,3.9,3.9c0,2.1-1.5,3.9-3.9,3.9
	C498.1,157.1,496.7,155.3,496.7,153.2z M502.7,153.2c0-1.3-0.8-2.5-2.2-2.5c-1.4,0-2.2,1.2-2.2,2.5s0.8,2.5,2.2,2.5
	C501.9,155.7,502.7,154.5,502.7,153.2z"/>
<path class="st9" d="M506,156.9v-7.5h1.6v1.1c0.6-0.7,1.4-1.3,2.4-1.3v1.6c-0.1,0-0.3,0-0.5,0c-0.7,0-1.6,0.5-1.9,1v5.1L506,156.9
	L506,156.9z"/>
<path class="st9" d="M516.3,156.9l-2.3-3.1l-1,1.1v2h-1.6v-10.3h1.6v6.4l3.3-3.6h2l-3.1,3.4l3.2,4.1L516.3,156.9L516.3,156.9z"/>
<path class="st9" d="M51.7,156.9v-8.7h-3.1v-1.6h8.1v1.6h-3.1v8.7H51.7L51.7,156.9z"/>
<path class="st9" d="M57,156.9v-7.5h1.6v1.1c0.6-0.7,1.4-1.3,2.4-1.3v1.6c-0.1,0-0.3,0-0.5,0c-0.7,0-1.6,0.5-1.9,1v5.1L57,156.9
	L57,156.9z"/>
<path class="st9" d="M67.4,156.9v-1c-0.5,0.6-1.5,1.2-2.6,1.2c-1.6,0-2.4-0.8-2.4-2.4v-5.3h1.6v4.7c0,1.2,0.6,1.5,1.5,1.5
	c0.8,0,1.5-0.5,1.9-1v-5.3H69v7.5L67.4,156.9L67.4,156.9z"/>
<path class="st9" d="M71.2,154.8c0.5,0.5,1.6,1.1,2.5,1.1s1.5-0.4,1.5-0.9c0-0.6-0.8-0.9-1.7-1.1c-1.3-0.3-2.8-0.6-2.8-2.3
	c0-1.2,1.1-2.3,2.9-2.3c1.3,0,2.2,0.4,2.9,1.1l-0.7,1.1c-0.4-0.5-1.3-0.9-2.2-0.9c-0.9,0-1.4,0.3-1.4,0.8c0,0.6,0.7,0.8,1.6,1
	c1.3,0.3,2.9,0.6,2.9,2.4c0,1.3-1.1,2.3-3.1,2.3c-1.3,0-2.4-0.4-3.2-1.2L71.2,154.8L71.2,154.8z"/>
<path class="st9" d="M78.7,155.2v-4.3h-1.2v-1.4h1.2v-2h1.6v2h1.5v1.4h-1.5v3.9c0,0.5,0.3,0.9,0.7,0.9c0.3,0,0.6-0.1,0.7-0.3
	l0.4,1.2c-0.3,0.3-0.8,0.5-1.5,0.5C79.4,157.1,78.7,156.4,78.7,155.2L78.7,155.2z"/>
<path class="st9" d="M109.9,32.1V21.8h1.8v10.3H109.9z"/>
<path class="st9" d="M118.9,32.1v-4.7c0-1.2-0.6-1.5-1.5-1.5c-0.8,0-1.5,0.5-1.9,1v5.2h-1.6v-7.5h1.6v1c0.5-0.6,1.4-1.2,2.6-1.2
	c1.6,0,2.4,0.9,2.4,2.4v5.3H118.9L118.9,32.1z"/>
<path class="st9" d="M127.9,32.1v-1c-0.6,0.7-1.4,1.2-2.4,1.2c-1.9,0-3.3-1.5-3.3-3.9s1.4-3.9,3.3-3.9c0.9,0,1.8,0.4,2.4,1.2v-3.9
	h1.6v10.3H127.9z M127.9,26.9c-0.4-0.6-1.2-1-1.9-1c-1.3,0-2.1,1-2.1,2.5s0.8,2.5,2.1,2.5c0.8,0,1.6-0.4,1.9-1V26.9L127.9,26.9z"/>
<path class="st9" d="M136.6,32.1v-1c-0.5,0.6-1.5,1.2-2.6,1.2c-1.6,0-2.4-0.8-2.4-2.4v-5.3h1.6v4.7c0,1.2,0.6,1.5,1.5,1.5
	c0.8,0,1.5-0.5,1.9-1v-5.3h1.6v7.5L136.6,32.1L136.6,32.1z"/>
<path class="st9" d="M140.4,29.9C141,30.5,142,31,143,31c1,0,1.5-0.4,1.5-0.9c0-0.6-0.8-0.9-1.7-1.1c-1.3-0.3-2.8-0.6-2.8-2.3
	c0-1.2,1.1-2.3,2.9-2.3c1.3,0,2.2,0.4,2.9,1.1l-0.7,1.1c-0.4-0.5-1.3-0.9-2.2-0.9c-0.9,0-1.4,0.3-1.4,0.8c0,0.6,0.7,0.8,1.6,1
	c1.3,0.3,2.9,0.6,2.9,2.4c0,1.3-1.1,2.3-3.1,2.3c-1.3,0-2.4-0.4-3.2-1.2L140.4,29.9L140.4,29.9z"/>
<path class="st9" d="M148,30.3V26h-1.2v-1.4h1.2v-2h1.6v2h1.5V26h-1.5v3.9c0,0.5,0.3,0.9,0.7,0.9c0.3,0,0.6-0.1,0.7-0.3l0.4,1.2
	c-0.3,0.3-0.8,0.5-1.5,0.5C148.6,32.3,148,31.6,148,30.3L148,30.3z"/>
<path class="st9" d="M152.6,32.1v-7.5h1.6v1.1c0.6-0.7,1.4-1.3,2.4-1.3V26c-0.1,0-0.3,0-0.5,0c-0.7,0-1.6,0.5-1.9,1v5.1H152.6z"/>
<path class="st9" d="M157.9,33.5c0.2,0.1,0.4,0.1,0.6,0.1c0.5,0,0.8-0.2,1.1-0.6l0.4-0.9l-3.1-7.6h1.7l2.2,5.6l2.2-5.6h1.7l-3.6,8.8
	c-0.5,1.3-1.4,1.7-2.6,1.7c-0.2,0-0.7,0-0.9-0.1L157.9,33.5z"/>
<path class="st9" d="M97,47.5V37.2h7.1v1.6h-5.3v2.7h5.2v1.6h-5.2V46h5.3v1.6H97z"/>
<path class="st9" d="M109.3,39.9c1.4,0,2.3,0.6,2.9,1.3l-1.1,1c-0.4-0.6-1-0.9-1.7-0.9c-1.4,0-2.3,1-2.3,2.5c0,1.5,0.9,2.5,2.3,2.5
	c0.7,0,1.3-0.3,1.7-0.9l1.1,1c-0.5,0.7-1.4,1.3-2.9,1.3c-2.3,0-3.9-1.7-3.9-3.9C105.4,41.5,107,39.9,109.3,39.9z"/>
<path class="st9" d="M113.1,43.8c0-2.1,1.5-3.9,3.8-3.9c2.4,0,3.9,1.8,3.9,3.9c0,2.1-1.4,3.9-3.9,3.9
	C114.6,47.7,113.1,46,113.1,43.8z M119.1,43.8c0-1.3-0.8-2.5-2.2-2.5c-1.4,0-2.2,1.2-2.2,2.5c0,1.3,0.8,2.5,2.2,2.5
	C118.3,46.3,119.1,45.1,119.1,43.8z"/>
<path class="st9" d="M122.5,45.4c0.5,0.5,1.6,1.1,2.5,1.1c1,0,1.5-0.4,1.5-0.9c0-0.6-0.8-0.9-1.7-1.1c-1.3-0.3-2.8-0.6-2.8-2.3
	c0-1.2,1.1-2.3,2.9-2.3c1.3,0,2.2,0.4,2.9,1.1l-0.7,1.1c-0.4-0.5-1.3-0.9-2.2-0.9c-0.8,0-1.4,0.3-1.4,0.8c0,0.6,0.7,0.8,1.6,1
	c1.3,0.3,2.9,0.6,2.9,2.4c0,1.3-1.1,2.3-3.1,2.3c-1.3,0-2.4-0.4-3.2-1.2L122.5,45.4L122.5,45.4z"/>
<path class="st9" d="M129.7,49c0.2,0.1,0.4,0.1,0.6,0.1c0.5,0,0.9-0.2,1.1-0.6l0.4-0.9l-3.1-7.6h1.7l2.2,5.6l2.2-5.6h1.7l-3.6,8.8
	c-0.5,1.3-1.4,1.7-2.6,1.7c-0.2,0-0.7,0-0.9-0.1L129.7,49z"/>
<path class="st9" d="M137.6,45.4c0.5,0.5,1.6,1.1,2.5,1.1c1,0,1.5-0.4,1.5-0.9c0-0.6-0.8-0.9-1.7-1.1c-1.3-0.3-2.8-0.6-2.8-2.3
	c0-1.2,1.1-2.3,2.9-2.3c1.3,0,2.2,0.4,2.9,1.1l-0.7,1.1c-0.4-0.5-1.3-0.9-2.2-0.9c-0.8,0-1.4,0.3-1.4,0.8c0,0.6,0.7,0.8,1.6,1
	c1.3,0.3,2.9,0.6,2.9,2.4c0,1.3-1.1,2.3-3.1,2.3c-1.3,0-2.4-0.4-3.2-1.2L137.6,45.4L137.6,45.4z"/>
<path class="st9" d="M145.2,45.8v-4.3h-1.2v-1.4h1.2v-2h1.6v2h1.5v1.4h-1.5v3.9c0,0.5,0.3,0.9,0.7,0.9c0.3,0,0.6-0.1,0.7-0.3
	l0.4,1.2c-0.3,0.3-0.8,0.5-1.5,0.5C145.8,47.7,145.2,47,145.2,45.8L145.2,45.8z"/>
<path class="st9" d="M153.1,39.9c2.2,0,3.7,1.7,3.7,4.1v0.4H151c0.1,1.1,1,2.1,2.4,2.1c0.7,0,1.6-0.3,2.1-0.8l0.7,1.1
	c-0.7,0.7-1.8,1.1-3,1.1c-2.2,0-3.9-1.6-3.9-3.9C149.3,41.6,150.9,39.9,153.1,39.9L153.1,39.9z M151,43.2h4.2c0-0.9-0.6-2-2.1-2
	C151.7,41.2,151,42.3,151,43.2L151,43.2z"/>
<path class="st9" d="M167.5,47.5v-4.9c0-0.8-0.4-1.3-1.2-1.3c-0.7,0-1.4,0.5-1.7,1v5.2H163v-4.9c0-0.8-0.4-1.3-1.2-1.3
	c-0.7,0-1.4,0.5-1.7,1v5.2h-1.6v-7.5h1.6v1c0.3-0.5,1.3-1.2,2.4-1.2c1.1,0,1.8,0.6,2,1.4c0.4-0.7,1.4-1.4,2.5-1.4
	c1.4,0,2.1,0.7,2.1,2.3v5.4L167.5,47.5L167.5,47.5z"/>
<path class="st9" d="M171.3,45.4c0.5,0.5,1.6,1.1,2.5,1.1c1,0,1.5-0.4,1.5-0.9c0-0.6-0.8-0.9-1.7-1.1c-1.3-0.3-2.8-0.6-2.8-2.3
	c0-1.2,1.1-2.3,2.9-2.3c1.3,0,2.2,0.4,2.9,1.1l-0.7,1.1c-0.4-0.5-1.3-0.9-2.2-0.9c-0.8,0-1.4,0.3-1.4,0.8c0,0.6,0.7,0.8,1.6,1
	c1.3,0.3,2.9,0.6,2.9,2.4c0,1.3-1.1,2.3-3.1,2.3c-1.3,0-2.4-0.4-3.2-1.2L171.3,45.4L171.3,45.4z"/>
<path class="st9" d="M356,430.5v-10.3h3.8c3.2,0,5.4,2.1,5.4,5.2c0,3-2.2,5.2-5.4,5.2H356z M357.8,428.9h2c2.2,0,3.5-1.6,3.5-3.6
	c0-1.9-1.2-3.6-3.5-3.6h-2V428.9z"/>
<path class="st9" d="M366.7,420.8c0-0.6,0.5-1,1-1c0.5,0,1,0.4,1,1s-0.4,1-1,1C367.2,421.8,366.7,421.3,366.7,420.8z M366.9,430.5
	V423h1.6v7.5H366.9z"/>
<path class="st9" d="M371.3,431.2c0.6,0.7,1.4,1,2.4,1c1.1,0,2.2-0.5,2.2-2v-0.9c-0.6,0.7-1.4,1.2-2.4,1.2c-1.9,0-3.3-1.4-3.3-3.8
	c0-2.5,1.4-3.8,3.3-3.8c0.9,0,1.8,0.4,2.4,1.2v-1h1.6v7.1c0,2.7-2,3.4-3.8,3.4c-1.3,0-2.2-0.3-3.1-1.1L371.3,431.2L371.3,431.2z
	 M375.9,425.3c-0.4-0.6-1.2-1-1.9-1c-1.3,0-2.1,1-2.1,2.4c0,1.4,0.8,2.4,2.1,2.4c0.8,0,1.6-0.4,1.9-1V425.3z"/>
<path class="st9" d="M379.4,420.8c0-0.6,0.5-1,1-1c0.5,0,1,0.4,1,1s-0.4,1-1,1C379.9,421.8,379.4,421.3,379.4,420.8z M379.6,430.5
	V423h1.6v7.5H379.6z"/>
<path class="st9" d="M383.7,428.8v-4.3h-1.2V423h1.2v-2h1.6v2h1.5v1.4h-1.5v3.9c0,0.5,0.3,0.9,0.7,0.9c0.3,0,0.6-0.1,0.7-0.3
	l0.4,1.2c-0.3,0.3-0.8,0.5-1.5,0.5C384.3,430.7,383.7,430,383.7,428.8L383.7,428.8z"/>
<path class="st9" d="M392.9,430.5v-0.8c-0.6,0.6-1.4,1-2.4,1c-1.2,0-2.6-0.8-2.6-2.5c0-1.7,1.4-2.4,2.6-2.4c1,0,1.9,0.3,2.4,1v-1.1
	c0-0.9-0.7-1.4-1.8-1.4c-0.8,0-1.6,0.3-2.2,0.9l-0.7-1.1c0.9-0.8,2-1.2,3.1-1.2c1.7,0,3.1,0.7,3.1,2.7v5H392.9z M392.9,427.7
	c-0.4-0.5-1.1-0.8-1.8-0.8c-0.9,0-1.6,0.5-1.6,1.3c0,0.8,0.7,1.3,1.6,1.3c0.7,0,1.4-0.3,1.8-0.8V427.7z"/>
<path class="st9" d="M396.6,430.5v-10.3h1.6v10.3H396.6z"/>
<path class="st9" d="M331.7,446v-10.3h1.8V446H331.7z"/>
<path class="st9" d="M340.7,446v-4.7c0-1.2-0.6-1.5-1.5-1.5c-0.8,0-1.5,0.5-1.9,1v5.2h-1.6v-7.5h1.6v1c0.5-0.6,1.4-1.2,2.6-1.2
	c1.6,0,2.4,0.9,2.4,2.4v5.3H340.7L340.7,446z"/>
<path class="st9" d="M346.5,439.9v6.1h-1.6v-6.1h-1.2v-1.4h1.2v-0.4c0-1.7,1-2.6,2.4-2.6c0.5,0,1,0.1,1.3,0.3l-0.4,1.2
	c-0.2-0.1-0.4-0.2-0.6-0.2c-0.6,0-1,0.4-1,1.3v0.4h1.5v1.4H346.5z"/>
<path class="st9" d="M349.2,446v-7.5h1.6v1.1c0.6-0.7,1.5-1.3,2.4-1.3v1.6c-0.1,0-0.3,0-0.5,0c-0.7,0-1.6,0.5-1.9,1v5.1L349.2,446
	L349.2,446z"/>
<path class="st9" d="M359.1,446v-0.8c-0.6,0.6-1.4,1-2.4,1c-1.2,0-2.6-0.8-2.6-2.5c0-1.7,1.4-2.4,2.6-2.4c1,0,1.9,0.3,2.4,1v-1.1
	c0-0.9-0.7-1.4-1.8-1.4c-0.8,0-1.6,0.3-2.2,0.9l-0.7-1.1c0.9-0.8,2-1.2,3.1-1.2c1.7,0,3.1,0.7,3.1,2.7v4.9H359.1z M359.1,443.2
	c-0.4-0.5-1.1-0.8-1.8-0.8c-0.9,0-1.6,0.5-1.6,1.3s0.7,1.3,1.6,1.3c0.7,0,1.4-0.3,1.8-0.8V443.2z"/>
<path class="st9" d="M363,443.8c0.5,0.5,1.6,1.1,2.5,1.1c1,0,1.5-0.4,1.5-0.9c0-0.6-0.8-0.9-1.7-1.1c-1.3-0.3-2.8-0.6-2.8-2.3
	c0-1.2,1.1-2.3,2.9-2.3c1.3,0,2.2,0.4,2.9,1.1l-0.7,1.1c-0.4-0.5-1.3-0.9-2.2-0.9c-0.9,0-1.4,0.3-1.4,0.8c0,0.6,0.7,0.8,1.6,1
	c1.3,0.3,2.9,0.6,2.9,2.4c0,1.3-1.1,2.3-3.1,2.3c-1.3,0-2.4-0.4-3.2-1.2L363,443.8L363,443.8z"/>
<path class="st9" d="M370.5,444.2v-4.3h-1.2v-1.4h1.2v-2h1.6v2h1.5v1.4h-1.5v3.9c0,0.5,0.3,0.9,0.7,0.9c0.3,0,0.6-0.1,0.7-0.3
	l0.4,1.2c-0.3,0.3-0.8,0.5-1.5,0.5C371.2,446.2,370.5,445.5,370.5,444.2L370.5,444.2z"/>
<path class="st9" d="M375.1,446v-7.5h1.6v1.1c0.6-0.7,1.5-1.3,2.4-1.3v1.6c-0.1,0-0.3,0-0.5,0c-0.7,0-1.6,0.5-1.9,1v5.1L375.1,446
	L375.1,446z"/>
<path class="st9" d="M385.5,446v-1c-0.5,0.6-1.5,1.2-2.6,1.2c-1.6,0-2.4-0.8-2.4-2.4v-5.3h1.6v4.7c0,1.2,0.6,1.5,1.5,1.5
	c0.8,0,1.5-0.5,1.9-1v-5.3h1.6v7.5L385.5,446L385.5,446z"/>
<path class="st9" d="M392.6,438.3c1.5,0,2.3,0.6,2.9,1.3l-1.1,1c-0.4-0.6-1-0.9-1.7-0.9c-1.4,0-2.3,1-2.3,2.5c0,1.5,0.9,2.5,2.3,2.5
	c0.7,0,1.3-0.3,1.7-0.9l1.1,1c-0.5,0.7-1.4,1.3-2.9,1.3c-2.3,0-3.9-1.7-3.9-3.9C388.8,440,390.4,438.3,392.6,438.3z"/>
<path class="st9" d="M397.2,444.2v-4.3H396v-1.4h1.2v-2h1.6v2h1.5v1.4h-1.5v3.9c0,0.5,0.3,0.9,0.7,0.9c0.3,0,0.6-0.1,0.7-0.3
	l0.4,1.2c-0.3,0.3-0.8,0.5-1.5,0.5C397.9,446.2,397.2,445.5,397.2,444.2L397.2,444.2z"/>
<path class="st9" d="M406.9,446v-1c-0.5,0.6-1.5,1.2-2.6,1.2c-1.6,0-2.4-0.8-2.4-2.4v-5.3h1.6v4.7c0,1.2,0.6,1.5,1.5,1.5
	c0.8,0,1.5-0.5,1.9-1v-5.3h1.6v7.5L406.9,446L406.9,446z"/>
<path class="st9" d="M410.6,446v-7.5h1.6v1.1c0.6-0.7,1.4-1.3,2.4-1.3v1.6c-0.1,0-0.3,0-0.5,0c-0.7,0-1.6,0.5-1.9,1v5.1L410.6,446
	L410.6,446z"/>
<path class="st9" d="M419.3,438.3c2.2,0,3.7,1.7,3.7,4.1v0.4h-5.8c0.1,1.1,1,2.1,2.4,2.1c0.7,0,1.6-0.3,2.1-0.8l0.7,1.1
	c-0.7,0.7-1.8,1.1-3,1.1c-2.2,0-3.9-1.6-3.9-3.9C415.5,440.1,417.1,438.3,419.3,438.3L419.3,438.3z M417.2,441.6h4.2
	c0-0.9-0.6-2-2.1-2C417.9,439.7,417.3,440.7,417.2,441.6L417.2,441.6z"/>
<path class="st9" d="M13.2,285.3c0-3.2,2.4-5.3,5.3-5.3c2.2,0,3.5,1.1,4.2,2.3l-1.5,0.8c-0.5-0.9-1.5-1.5-2.7-1.5
	c-2,0-3.5,1.6-3.5,3.7c0,2.2,1.5,3.7,3.5,3.7c1.2,0,2.2-0.6,2.7-1.5l1.5,0.8c-0.8,1.2-2.1,2.3-4.2,2.3
	C15.6,290.6,13.2,288.5,13.2,285.3L13.2,285.3z"/>
<path class="st9" d="M29.2,290.4v-1c-0.5,0.6-1.5,1.2-2.6,1.2c-1.6,0-2.4-0.8-2.4-2.4V283h1.6v4.7c0,1.2,0.6,1.5,1.5,1.5
	c0.8,0,1.5-0.5,1.9-1V283h1.6v7.5L29.2,290.4L29.2,290.4z"/>
<path class="st9" d="M33.1,288.3c0.5,0.5,1.6,1.1,2.5,1.1s1.5-0.4,1.5-0.9c0-0.6-0.8-0.9-1.7-1.1c-1.3-0.3-2.8-0.6-2.8-2.3
	c0-1.2,1.1-2.3,2.9-2.3c1.3,0,2.2,0.4,2.9,1.1l-0.7,1.1c-0.4-0.5-1.3-0.9-2.2-0.9c-0.9,0-1.4,0.3-1.4,0.8c0,0.6,0.7,0.8,1.6,1
	c1.3,0.3,2.9,0.6,2.9,2.4c0,1.3-1.1,2.3-3.1,2.3c-1.3,0-2.4-0.4-3.2-1.2L33.1,288.3L33.1,288.3z"/>
<path class="st9" d="M40.6,288.7v-4.3h-1.2V283h1.2v-2h1.6v2h1.5v1.4h-1.5v3.9c0,0.5,0.3,0.9,0.7,0.9c0.3,0,0.6-0.1,0.7-0.3l0.4,1.2
	c-0.3,0.3-0.8,0.5-1.5,0.5C41.3,290.6,40.6,289.9,40.6,288.7L40.6,288.7z"/>
<path class="st9" d="M44.7,286.7c0-2.1,1.5-3.9,3.8-3.9s3.9,1.8,3.9,3.9c0,2.1-1.4,3.9-3.9,3.9C46.2,290.6,44.7,288.9,44.7,286.7z
	 M50.7,286.7c0-1.3-0.8-2.5-2.2-2.5s-2.2,1.2-2.2,2.5s0.8,2.5,2.2,2.5C50,289.2,50.7,288,50.7,286.7z"/>
<path class="st9" d="M63.2,290.4v-4.9c0-0.8-0.4-1.3-1.2-1.3c-0.7,0-1.4,0.5-1.7,1v5.2h-1.6v-4.9c0-0.8-0.4-1.3-1.2-1.3
	c-0.7,0-1.4,0.5-1.7,1v5.2h-1.6V283h1.6v1c0.3-0.5,1.3-1.2,2.4-1.2c1.1,0,1.8,0.6,2,1.4c0.4-0.7,1.4-1.4,2.5-1.4
	c1.4,0,2.1,0.7,2.1,2.3v5.4L63.2,290.4L63.2,290.4z"/>
<path class="st9" d="M70.3,282.8c2.2,0,3.7,1.7,3.7,4.1v0.4h-5.8c0.1,1.1,1,2.1,2.4,2.1c0.7,0,1.6-0.3,2.1-0.8l0.7,1.1
	c-0.7,0.7-1.8,1.1-3,1.1c-2.2,0-3.9-1.6-3.9-3.9C66.5,284.5,68,282.8,70.3,282.8L70.3,282.8z M68.2,286.1h4.2c0-0.9-0.6-2-2.1-2
	C68.9,284.1,68.2,285.2,68.2,286.1L68.2,286.1z"/>
<path class="st9" d="M75.6,290.4V283h1.6v1.1c0.6-0.7,1.4-1.3,2.4-1.3v1.6c-0.1,0-0.3,0-0.5,0c-0.7,0-1.6,0.5-1.9,1v5.1L75.6,290.4
	L75.6,290.4z"/>
<path class="st9" d="M8.9,305.9v-10.3h7.1v1.6h-5.3v2.7h5.2v1.6h-5.2v2.9h5.3v1.6H8.9z"/>
<path class="st9" d="M22.4,305.9l-1.9-2.8l-2,2.8h-1.8l2.7-3.8l-2.6-3.6h1.8l1.8,2.5l1.8-2.5h1.8l-2.6,3.6l2.8,3.8H22.4z"/>
<path class="st9" d="M27,308.8h-1.6v-10.3H27v1c0.6-0.7,1.4-1.2,2.4-1.2c1.9,0,3.3,1.5,3.3,3.9s-1.4,3.9-3.3,3.9
	c-0.9,0-1.8-0.4-2.4-1.2V308.8L27,308.8z M28.9,299.7c-0.8,0-1.6,0.4-1.9,1v3c0.4,0.5,1.2,1,1.9,1c1.3,0,2.1-1,2.1-2.5
	S30.2,299.7,28.9,299.7z"/>
<path class="st9" d="M37.7,298.2c2.2,0,3.7,1.7,3.7,4.1v0.4h-5.8c0.1,1.1,1,2.1,2.4,2.1c0.7,0,1.6-0.3,2.1-0.8l0.7,1.1
	c-0.7,0.7-1.8,1.1-3,1.1c-2.2,0-3.9-1.6-3.9-3.9C33.9,300,35.5,298.2,37.7,298.2L37.7,298.2z M35.6,301.6h4.2c0-0.9-0.6-2-2.1-2
	C36.3,299.6,35.7,300.6,35.6,301.6L35.6,301.6z"/>
<path class="st9" d="M43,305.9v-7.5h1.6v1.1c0.6-0.7,1.4-1.3,2.4-1.3v1.6c-0.1,0-0.3,0-0.5,0c-0.7,0-1.6,0.5-1.9,1v5.1L43,305.9
	L43,305.9z"/>
<path class="st9" d="M48.1,296.2c0-0.6,0.5-1,1-1c0.5,0,1,0.4,1,1c0,0.6-0.4,1-1,1C48.6,297.2,48.1,296.7,48.1,296.2z M48.3,305.9
	v-7.5H50v7.5H48.3z"/>
<path class="st9" d="M55.4,298.2c2.2,0,3.7,1.7,3.7,4.1v0.4h-5.8c0.1,1.1,1,2.1,2.4,2.1c0.7,0,1.6-0.3,2.1-0.8l0.7,1.1
	c-0.7,0.7-1.8,1.1-3,1.1c-2.2,0-3.9-1.6-3.9-3.9C51.6,300,53.2,298.2,55.4,298.2L55.4,298.2z M53.3,301.6h4.2c0-0.9-0.6-2-2.1-2
	C54,299.6,53.4,300.6,53.3,301.6L53.3,301.6z"/>
<path class="st9" d="M65.7,305.9v-4.7c0-1.2-0.6-1.5-1.5-1.5c-0.8,0-1.5,0.5-1.9,1v5.2h-1.6v-7.5h1.6v1c0.5-0.6,1.4-1.2,2.6-1.2
	c1.6,0,2.4,0.9,2.4,2.4v5.3H65.7L65.7,305.9z"/>
<path class="st9" d="M72.9,298.2c1.4,0,2.3,0.6,2.9,1.3l-1.1,1c-0.4-0.6-1-0.9-1.7-0.9c-1.4,0-2.3,1-2.3,2.5c0,1.5,0.9,2.5,2.3,2.5
	c0.7,0,1.3-0.3,1.7-0.9l1.1,1c-0.5,0.7-1.4,1.3-2.9,1.3c-2.3,0-3.9-1.7-3.9-3.9S70.6,298.2,72.9,298.2z"/>
<path class="st9" d="M80.5,298.2c2.2,0,3.7,1.7,3.7,4.1v0.4h-5.8c0.1,1.1,1,2.1,2.4,2.1c0.7,0,1.6-0.3,2.1-0.8l0.7,1.1
	c-0.7,0.7-1.8,1.1-3,1.1c-2.2,0-3.9-1.6-3.9-3.9C76.7,300,78.2,298.2,80.5,298.2L80.5,298.2z M78.4,301.6h4.2c0-0.9-0.6-2-2.1-2
	C79.1,299.6,78.4,300.6,78.4,301.6L78.4,301.6z"/>
<path class="st9" d="M101.1,427.9c0-3.2,2.4-5.3,5.3-5.3c2.2,0,3.5,1.1,4.2,2.3l-1.5,0.8c-0.5-0.9-1.5-1.5-2.7-1.5
	c-2,0-3.5,1.6-3.5,3.7c0,2.2,1.5,3.7,3.5,3.7c1.2,0,2.2-0.6,2.7-1.5l1.5,0.8c-0.8,1.2-2.1,2.3-4.2,2.3
	C103.5,433.2,101.1,431.1,101.1,427.9L101.1,427.9z"/>
<path class="st9" d="M111.6,429.3c0-2.1,1.5-3.9,3.8-3.9c2.4,0,3.9,1.8,3.9,3.9s-1.4,3.9-3.9,3.9C113,433.2,111.6,431.4,111.6,429.3
	z M117.6,429.3c0-1.3-0.8-2.5-2.2-2.5c-1.4,0-2.2,1.2-2.2,2.5s0.8,2.5,2.2,2.5C116.8,431.8,117.6,430.6,117.6,429.3z"/>
<path class="st9" d="M125.9,433v-4.7c0-1.2-0.6-1.5-1.5-1.5c-0.8,0-1.5,0.5-1.9,1v5.2h-1.6v-7.5h1.6v1c0.5-0.6,1.4-1.2,2.6-1.2
	c1.6,0,2.4,0.9,2.4,2.4v5.3H125.9L125.9,433z"/>
<path class="st9" d="M134.7,433v-4.7c0-1.2-0.6-1.5-1.5-1.5c-0.8,0-1.5,0.5-1.9,1v5.2h-1.6v-7.5h1.6v1c0.5-0.6,1.5-1.2,2.6-1.2
	c1.6,0,2.4,0.9,2.4,2.4v5.3H134.7L134.7,433z"/>
<path class="st9" d="M141.8,425.4c2.2,0,3.7,1.7,3.7,4.1v0.4h-5.8c0.1,1.1,1,2.1,2.4,2.1c0.7,0,1.6-0.3,2.1-0.8l0.7,1.1
	c-0.7,0.7-1.8,1.1-3,1.1c-2.2,0-3.9-1.6-3.9-3.9C138,427.1,139.5,425.4,141.8,425.4L141.8,425.4z M139.7,428.7h4.2
	c0-0.9-0.6-2-2.1-2C140.4,426.7,139.7,427.8,139.7,428.7L139.7,428.7z"/>
<path class="st9" d="M150.5,425.4c1.4,0,2.3,0.6,2.9,1.3l-1.1,1c-0.4-0.6-1-0.9-1.7-0.9c-1.4,0-2.3,1-2.3,2.5c0,1.5,0.9,2.5,2.3,2.5
	c0.7,0,1.3-0.3,1.7-0.9l1.1,1c-0.5,0.7-1.4,1.3-2.9,1.3c-2.3,0-3.9-1.7-3.9-3.9C146.6,427,148.2,425.4,150.5,425.4z"/>
<path class="st9" d="M155.1,431.3V427h-1.2v-1.4h1.2v-2h1.6v2h1.5v1.4h-1.5v3.9c0,0.5,0.3,0.9,0.7,0.9c0.3,0,0.6-0.1,0.7-0.3
	l0.4,1.2c-0.3,0.3-0.8,0.5-1.5,0.5C155.7,433.2,155.1,432.5,155.1,431.3L155.1,431.3z"/>
<path class="st9" d="M163,425.4c2.2,0,3.7,1.7,3.7,4.1v0.4h-5.8c0.1,1.1,1,2.1,2.4,2.1c0.7,0,1.6-0.3,2.1-0.8l0.7,1.1
	c-0.7,0.7-1.8,1.1-3,1.1c-2.2,0-3.9-1.6-3.9-3.9C159.2,427.1,160.8,425.4,163,425.4L163,425.4z M160.9,428.7h4.2c0-0.9-0.6-2-2.1-2
	C161.6,426.7,161,427.8,160.9,428.7L160.9,428.7z"/>
<path class="st9" d="M173.5,433v-1c-0.6,0.7-1.4,1.2-2.4,1.2c-1.9,0-3.3-1.5-3.3-3.9c0-2.5,1.4-3.9,3.3-3.9c0.9,0,1.8,0.4,2.4,1.2
	v-3.9h1.6V433L173.5,433L173.5,433z M173.5,427.8c-0.4-0.6-1.2-1-1.9-1c-1.3,0-2.1,1-2.1,2.5c0,1.5,0.8,2.5,2.1,2.5
	c0.8,0,1.6-0.4,1.9-1V427.8z"/>
<path class="st9" d="M182.3,433v-4.7c0-1.2-0.6-1.5-1.5-1.5c-0.8,0-1.5,0.5-1.9,1v5.2h-1.6v-7.5h1.6v1c0.5-0.6,1.4-1.2,2.6-1.2
	c1.6,0,2.4,0.9,2.4,2.4v5.3H182.3L182.3,433z"/>
<path class="st9" d="M189.4,425.4c2.2,0,3.7,1.7,3.7,4.1v0.4h-5.8c0.1,1.1,1,2.1,2.4,2.1c0.7,0,1.6-0.3,2.1-0.8l0.7,1.1
	c-0.7,0.7-1.8,1.1-3,1.1c-2.2,0-3.9-1.6-3.9-3.9C185.6,427.1,187.1,425.4,189.4,425.4L189.4,425.4z M187.3,428.7h4.2
	c0-0.9-0.6-2-2.1-2C188,426.7,187.3,427.8,187.3,428.7L187.3,428.7z"/>
<path class="st9" d="M194.7,430.9c0.5,0.5,1.6,1.1,2.5,1.1c1,0,1.5-0.4,1.5-0.9c0-0.6-0.8-0.9-1.7-1.1c-1.3-0.3-2.8-0.6-2.8-2.3
	c0-1.2,1.1-2.3,2.9-2.3c1.3,0,2.2,0.4,2.9,1.1l-0.7,1.1c-0.4-0.5-1.3-0.9-2.2-0.9c-0.9,0-1.4,0.3-1.4,0.8c0,0.6,0.7,0.8,1.6,1
	c1.3,0.3,2.9,0.6,2.9,2.4c0,1.3-1.1,2.3-3.1,2.3c-1.3,0-2.4-0.4-3.2-1.2L194.7,430.9L194.7,430.9z"/>
<path class="st9" d="M202,430.9c0.5,0.5,1.6,1.1,2.5,1.1c1,0,1.5-0.4,1.5-0.9c0-0.6-0.8-0.9-1.7-1.1c-1.3-0.3-2.8-0.6-2.8-2.3
	c0-1.2,1.1-2.3,2.9-2.3c1.3,0,2.2,0.4,2.9,1.1l-0.7,1.1c-0.4-0.5-1.3-0.9-2.2-0.9c-0.8,0-1.4,0.3-1.4,0.8c0,0.6,0.7,0.8,1.6,1
	c1.3,0.3,2.9,0.6,2.9,2.4c0,1.3-1.1,2.3-3.1,2.3c-1.3,0-2.4-0.4-3.2-1.2L202,430.9L202,430.9z"/>
<path class="st9" d="M494.3,290.4v-10.3h7.1v1.6h-5.3v2.7h5.2v1.6h-5.2v2.9h5.3v1.6H494.3z"/>
<path class="st9" d="M508.2,290.4v-4.7c0-1.2-0.6-1.5-1.5-1.5c-0.8,0-1.5,0.5-1.9,1v5.2h-1.6V283h1.6v1c0.5-0.6,1.4-1.2,2.6-1.2
	c1.6,0,2.4,0.9,2.4,2.4v5.3H508.2L508.2,290.4z"/>
<path class="st9" d="M512.2,288.7v-4.3H511V283h1.2v-2h1.6v2h1.5v1.4h-1.5v3.9c0,0.5,0.3,0.9,0.7,0.9c0.3,0,0.6-0.1,0.7-0.3l0.4,1.2
	c-0.3,0.3-0.8,0.5-1.5,0.5C512.9,290.6,512.3,289.9,512.2,288.7L512.2,288.7z"/>
<path class="st9" d="M520.2,282.8c2.2,0,3.7,1.7,3.7,4.1v0.4h-5.8c0.1,1.1,1,2.1,2.4,2.1c0.7,0,1.6-0.3,2.1-0.8l0.7,1.1
	c-0.7,0.7-1.8,1.1-3,1.1c-2.2,0-3.9-1.6-3.9-3.9C516.4,284.5,518,282.8,520.2,282.8L520.2,282.8z M518.1,286.1h4.2
	c0-0.9-0.6-2-2.1-2C518.8,284.1,518.1,285.2,518.1,286.1L518.1,286.1z"/>
<path class="st9" d="M525.5,290.4V283h1.6v1.1c0.6-0.7,1.5-1.3,2.4-1.3v1.6c-0.1,0-0.3,0-0.5,0c-0.7,0-1.6,0.5-1.9,1v5.1
	L525.5,290.4L525.5,290.4z"/>
<path class="st9" d="M532.5,293.3h-1.6V283h1.6v1c0.6-0.7,1.4-1.2,2.4-1.2c1.9,0,3.3,1.5,3.3,3.9c0,2.5-1.4,3.9-3.3,3.9
	c-0.9,0-1.8-0.4-2.4-1.2V293.3L532.5,293.3z M534.4,284.2c-0.8,0-1.6,0.4-1.9,1v3c0.4,0.5,1.2,1,1.9,1c1.3,0,2.1-1,2.1-2.5
	C536.5,285.2,535.7,284.2,534.4,284.2z"/>
<path class="st9" d="M539.8,290.4V283h1.6v1.1c0.6-0.7,1.5-1.3,2.4-1.3v1.6c-0.1,0-0.3,0-0.5,0c-0.7,0-1.6,0.5-1.9,1v5.1
	L539.8,290.4L539.8,290.4z"/>
<path class="st9" d="M545,280.7c0-0.6,0.5-1,1-1c0.5,0,1,0.4,1,1c0,0.6-0.4,1-1,1C545.4,281.7,545,281.3,545,280.7z M545.2,290.4
	V283h1.6v7.5H545.2z"/>
<path class="st9" d="M549,288.3c0.5,0.5,1.6,1.1,2.5,1.1c1,0,1.5-0.4,1.5-0.9c0-0.6-0.8-0.9-1.7-1.1c-1.3-0.3-2.8-0.6-2.8-2.3
	c0-1.2,1.1-2.3,2.9-2.3c1.3,0,2.2,0.4,2.9,1.1l-0.7,1.1c-0.4-0.5-1.3-0.9-2.2-0.9c-0.9,0-1.4,0.3-1.4,0.8c0,0.6,0.7,0.8,1.6,1
	c1.3,0.3,2.9,0.6,2.9,2.4c0,1.3-1.1,2.3-3.1,2.3c-1.3,0-2.4-0.4-3.2-1.2L549,288.3L549,288.3z"/>
<path class="st9" d="M559.5,282.8c2.2,0,3.7,1.7,3.7,4.1v0.4h-5.8c0.1,1.1,1,2.1,2.4,2.1c0.7,0,1.6-0.3,2.1-0.8l0.7,1.1
	c-0.7,0.7-1.8,1.1-3,1.1c-2.2,0-3.9-1.6-3.9-3.9C555.7,284.5,557.3,282.8,559.5,282.8L559.5,282.8z M557.4,286.1h4.2
	c0-0.9-0.6-2-2.1-2C558.1,284.1,557.5,285.2,557.4,286.1L557.4,286.1z"/>
<path class="st9" d="M489.5,305.9v-10.3h1.8v10.3H489.5z"/>
<path class="st9" d="M498.5,305.9v-4.7c0-1.2-0.6-1.5-1.5-1.5c-0.8,0-1.5,0.5-1.9,1v5.2h-1.6v-7.5h1.6v1c0.5-0.6,1.5-1.2,2.6-1.2
	c1.6,0,2.4,0.9,2.4,2.4v5.3H498.5L498.5,305.9z"/>
<path class="st9" d="M502.5,304.2v-4.3h-1.2v-1.4h1.2v-2h1.6v2h1.5v1.4h-1.5v3.9c0,0.5,0.3,0.9,0.7,0.9c0.3,0,0.6-0.1,0.7-0.3
	l0.4,1.2c-0.3,0.3-0.8,0.5-1.5,0.5C503.2,306.1,502.6,305.4,502.5,304.2L502.5,304.2z"/>
<path class="st9" d="M510.5,298.2c2.2,0,3.7,1.7,3.7,4.1v0.4h-5.8c0.1,1.1,1,2.1,2.4,2.1c0.7,0,1.6-0.3,2.1-0.8l0.7,1.1
	c-0.7,0.7-1.8,1.1-3,1.1c-2.2,0-3.9-1.6-3.9-3.9C506.7,300,508.2,298.2,510.5,298.2L510.5,298.2z M508.4,301.6h4.2
	c0-0.9-0.6-2-2.1-2C509.1,299.6,508.4,300.6,508.4,301.6L508.4,301.6z"/>
<path class="st9" d="M515.8,305.9v-10.3h1.6v10.3H515.8z"/>
<path class="st9" d="M519.5,305.9v-10.3h1.6v10.3H519.5z"/>
<path class="st9" d="M523,296.2c0-0.6,0.5-1,1-1c0.5,0,1,0.4,1,1c0,0.6-0.4,1-1,1C523.5,297.2,523,296.7,523,296.2z M523.2,305.9
	v-7.5h1.6v7.5H523.2z"/>
<path class="st9" d="M527.6,306.7c0.6,0.7,1.4,1,2.4,1c1.1,0,2.2-0.5,2.2-2v-0.9c-0.6,0.7-1.4,1.2-2.4,1.2c-1.9,0-3.3-1.4-3.3-3.8
	s1.4-3.8,3.3-3.8c0.9,0,1.8,0.4,2.4,1.2v-1h1.6v7.1c0,2.7-2,3.4-3.8,3.4c-1.3,0-2.2-0.3-3.1-1.1L527.6,306.7L527.6,306.7z
	 M532.2,300.7c-0.4-0.6-1.2-1-1.9-1c-1.3,0-2.1,1-2.1,2.4c0,1.4,0.8,2.4,2.1,2.4c0.8,0,1.6-0.4,1.9-1V300.7z"/>
<path class="st9" d="M539.2,298.2c2.2,0,3.7,1.7,3.7,4.1v0.4h-5.8c0.1,1.1,1,2.1,2.4,2.1c0.7,0,1.6-0.3,2.1-0.8l0.7,1.1
	c-0.7,0.7-1.8,1.1-3,1.1c-2.2,0-3.9-1.6-3.9-3.9C535.4,300,537,298.2,539.2,298.2L539.2,298.2z M537.1,301.6h4.2c0-0.9-0.6-2-2.1-2
	C537.8,299.6,537.2,300.6,537.1,301.6L537.1,301.6z"/>
<path class="st9" d="M549.6,305.9v-4.7c0-1.2-0.6-1.5-1.5-1.5c-0.8,0-1.5,0.5-1.9,1v5.2h-1.6v-7.5h1.6v1c0.5-0.6,1.5-1.2,2.6-1.2
	c1.6,0,2.4,0.9,2.4,2.4v5.3H549.6L549.6,305.9z"/>
<path class="st9" d="M556.7,298.2c1.4,0,2.3,0.6,2.9,1.3l-1.1,1c-0.4-0.6-1-0.9-1.7-0.9c-1.4,0-2.3,1-2.3,2.5c0,1.5,0.9,2.5,2.3,2.5
	c0.7,0,1.3-0.3,1.7-0.9l1.1,1c-0.5,0.7-1.4,1.3-2.9,1.3c-2.3,0-3.9-1.7-3.9-3.9S554.4,298.2,556.7,298.2z"/>
<path class="st9" d="M564.3,298.2c2.2,0,3.7,1.7,3.7,4.1v0.4h-5.8c0.1,1.1,1,2.1,2.4,2.1c0.7,0,1.6-0.3,2.1-0.8l0.7,1.1
	c-0.7,0.7-1.8,1.1-3,1.1c-2.2,0-3.9-1.6-3.9-3.9C560.5,300,562.1,298.2,564.3,298.2L564.3,298.2z M562.2,301.6h4.2
	c0-0.9-0.6-2-2.1-2C562.9,299.6,562.3,300.6,562.2,301.6L562.2,301.6z"/>
<g>
	<path class="st10" d="M229.4,215.1v-28h9.6c8.7,0,14.4,6.1,14.4,14c0,8-5.7,14-14.4,14H229.4z M232.9,212h6.1
		c6.8,0,10.8-4.9,10.8-10.9c0-6-3.8-10.9-10.8-10.9h-6.1V212z"/>
	<path class="st10" d="M258.2,189.3c0-1.2,1-2.1,2.1-2.1c1.2,0,2.1,0.9,2.1,2.1c0,1.2-1,2.1-2.1,2.1
		C259.1,191.5,258.2,190.5,258.2,189.3z M258.7,215.1v-20.3h3.2v20.3H258.7z"/>
	<path class="st10" d="M269.7,218c1.7,2,3.7,2.8,6.6,2.8c3.4,0,6.5-1.6,6.5-6.1v-2.9c-1.5,2.1-3.9,3.6-6.8,3.6c-5.3,0-9-3.9-9-10.5
		c0-6.5,3.7-10.5,9-10.5c2.7,0,5.2,1.3,6.8,3.6v-3.1h3.2v19.7c0,6.7-4.7,8.8-9.7,8.8c-3.4,0-5.8-0.7-8.2-3L269.7,218z M282.8,200.4
		c-1.1-1.8-3.5-3.3-6-3.3c-4.1,0-6.5,3.2-6.5,7.7c0,4.5,2.4,7.7,6.5,7.7c2.5,0,5-1.6,6-3.3V200.4z"/>
	<path class="st10" d="M291.7,189.3c0-1.2,1-2.1,2.1-2.1c1.2,0,2.1,0.9,2.1,2.1c0,1.2-1,2.1-2.1,2.1
		C292.7,191.5,291.7,190.5,291.7,189.3z M292.3,215.1v-20.3h3.2v20.3H292.3z"/>
	<path class="st10" d="M302.3,210.9v-13.3H299v-2.8h3.4v-5.5h3.2v5.5h4.1v2.8h-4.1v12.6c0,1.5,0.7,2.6,2.1,2.6
		c0.9,0,1.7-0.4,2.1-0.8l0.9,2.4c-0.8,0.8-1.9,1.3-3.8,1.3C303.9,215.6,302.3,213.9,302.3,210.9z"/>
	<path class="st10" d="M326.7,215.1v-2.3c-1.7,1.8-4,2.8-6.7,2.8c-3.4,0-7.1-2.3-7.1-6.7c0-4.5,3.7-6.7,7.1-6.7
		c2.8,0,5.1,0.9,6.7,2.8v-3.7c0-2.7-2.2-4.3-5.1-4.3c-2.4,0-4.4,0.9-6.2,2.8l-1.5-2.2c2.2-2.3,4.8-3.4,8.1-3.4
		c4.3,0,7.9,1.9,7.9,6.8v13.9H326.7z M326.7,207c-1.2-1.7-3.4-2.5-5.6-2.5c-2.9,0-5,1.8-5,4.5c0,2.6,2.1,4.4,5,4.4
		c2.2,0,4.4-0.8,5.6-2.5V207z"/>
	<path class="st10" d="M336.2,215.1v-28h3.2v28H336.2z"/>
	<path class="st10" d="M193.9,255.1v-28h18.4v3.1h-14.9v9h14.6v3.1h-14.6v9.7h14.9v3.1H193.9z"/>
	<path class="st10" d="M231.3,255.1v-13.3c0-3.6-1.8-4.7-4.5-4.7c-2.5,0-4.8,1.5-6,3.2v14.8h-3.2v-20.3h3.2v2.9
		c1.4-1.7,4.2-3.4,7.2-3.4c4.2,0,6.5,2.1,6.5,6.6v14.2H231.3z"/>
	<path class="st10" d="M241.4,250.9v-13.3H238v-2.8h3.4v-5.5h3.2v5.5h4.1v2.8h-4.1v12.6c0,1.5,0.7,2.6,2.1,2.6
		c0.9,0,1.7-0.4,2.1-0.8l0.9,2.4c-0.8,0.8-1.9,1.3-3.8,1.3C242.9,255.6,241.4,253.9,241.4,250.9z"/>
	<path class="st10" d="M261.9,234.4c6.1,0,9.7,4.8,9.7,10.9v0.8h-16.4c0.3,3.8,2.9,7,7.3,7c2.3,0,4.7-0.9,6.3-2.6l1.5,2.1
		c-2,2-4.7,3.1-8.1,3.1c-6,0-10.3-4.3-10.3-10.7C251.9,239.1,256.1,234.4,261.9,234.4z M255.3,243.7h13.3c0-3-2.1-6.8-6.7-6.8
		C257.6,237,255.4,240.6,255.3,243.7z"/>
	<path class="st10" d="M276.8,255.1v-20.3h3.2v3.3c1.6-2.1,4-3.7,6.8-3.7v3.2c-0.4-0.1-0.8-0.1-1.3-0.1c-1.9,0-4.6,1.6-5.5,3.2v14.4
		H276.8z"/>
	<path class="st10" d="M293.8,262.9h-3.2v-28h3.2v3c1.5-2.1,4-3.5,6.8-3.5c5.3,0,9,4,9,10.6c0,6.6-3.7,10.7-9,10.7
		c-2.8,0-5.2-1.3-6.8-3.6V262.9z M299.8,237.2c-2.5,0-5,1.5-6,3.2v9.2c1.1,1.8,3.6,3.3,6,3.3c4.1,0,6.5-3.4,6.5-7.9
		C306.3,240.5,303.9,237.2,299.8,237.2z"/>
	<path class="st10" d="M314.7,255.1v-20.3h3.2v3.3c1.6-2.1,4-3.7,6.8-3.7v3.2c-0.4-0.1-0.8-0.1-1.3-0.1c-1.9,0-4.6,1.6-5.5,3.2v14.4
		H314.7z"/>
	<path class="st10" d="M328,229.3c0-1.2,1-2.1,2.1-2.1c1.2,0,2.1,0.9,2.1,2.1c0,1.2-1,2.1-2.1,2.1C329,231.5,328,230.5,328,229.3z
		 M328.6,255.1v-20.3h3.2v20.3H328.6z"/>
	<path class="st10" d="M337.9,250.2c1.3,1.6,3.9,2.9,6.7,2.9c3.1,0,4.8-1.4,4.8-3.4c0-2.2-2.5-2.9-5.2-3.6c-3.4-0.8-7.4-1.7-7.4-5.9
		c0-3.2,2.7-5.8,7.6-5.8c3.4,0,5.9,1.3,7.5,2.9l-1.5,2.2c-1.2-1.5-3.4-2.6-6-2.6c-2.8,0-4.5,1.3-4.5,3.1c0,2,2.3,2.6,5,3.2
		c3.5,0.8,7.6,1.8,7.6,6.3c0,3.4-2.7,6.1-8,6.1c-3.3,0-6.1-1-8.2-3.2L337.9,250.2z"/>
	<path class="st10" d="M366.4,234.4c6.1,0,9.7,4.8,9.7,10.9v0.8h-16.4c0.3,3.8,2.9,7,7.3,7c2.3,0,4.7-0.9,6.3-2.6l1.5,2.1
		c-2,2-4.7,3.1-8.1,3.1c-6,0-10.3-4.3-10.3-10.7C356.4,239.1,360.6,234.4,366.4,234.4z M359.7,243.7H373c0-3-2.1-6.8-6.7-6.8
		C362,237,359.9,240.6,359.7,243.7z"/>
</g>
</svg>
