<?xml version="1.0" encoding="utf-8"?>
<!-- Generator: Adobe Illustrator 15.0.0, SVG Export Plug-In . SVG Version: 6.00 Build 0)  -->
<!DOCTYPE svg PUBLIC "-//W3C//DTD SVG 1.1 Tiny//EN" "http://www.w3.org/Graphics/SVG/1.1/DTD/svg11-tiny.dtd">
<svg version="1.1" baseProfile="tiny" id="Layer_1" xmlns="http://www.w3.org/2000/svg" xmlns:xlink="http://www.w3.org/1999/xlink"
	 x="0px" y="0px" width="240px" height="240px" viewBox="0 0 240 240" xml:space="preserve">
<g>
	<path fill-rule="evenodd" fill="#808080" d="M101.333,29.333c0,4.889,0,9.778,0,14.667c-26.817,1.627-41.04,15.849-42.667,42.667
		C62.953,91.038,68.002,85.5,73.333,88c4.638,2.175-5.515,8.181-9.333,12c-2.963,2.963-10.102,13.252-12,13.333
		c-3.583,0.153-15.23-15.23-13.333-13.333C33.808,95.141,29.151,93.413,28,88c4.889,0,9.778,0,14.667,0
		C47.639,53.861,64.917,32.027,101.333,29.333z"/>
	<path fill-rule="evenodd" fill="#808080" d="M136,30.667c10.023-2.787,61.772-3.216,69.333,1.333
		c10.541,6.343,13.763,48.427,8,62.667c-3.892,9.617-16.622,12.977-34.666,13.333c-23.159,0.458-50.935,2.874-57.334-13.333
		c-2.5-6.333-2.851-46.289,0-53.333C123.007,37.197,127.684,32.979,136,30.667z M141.333,46.667c-1.92,0.747-3.253,2.08-4,4
		c0.803,12.531-1.66,28.327,1.334,38.667c16.255,2.369,41.017,1.985,57.333,0c2.032-11.001,2.314-30.378,0-41.333
		C180.383,44.951,159.156,47.51,141.333,46.667z"/>
	<path fill-rule="evenodd" fill="#808080" d="M188,126.667c7.902,7.661,20.539,17.672,24,25.333c-4.889,0-9.777,0-14.667,0
		c-5.047,34.063-22.121,56.101-58.666,58.667c0-4.89,0-9.778,0-14.667c26.817-1.627,41.039-15.85,42.666-42.667
		c-2.282-3.051-10.178-0.488-14.666-1.333c-3.607-1.993,3.484-7.415,6.666-10.667C178.527,136.025,184.016,132.742,188,126.667z"/>
	<path fill-rule="evenodd" fill="#808080" d="M44,133.333c18.335-4.038,59.629-3.041,68,4c13.989,11.769,11.803,60.266,0,69.334
		c-8.674,6.664-61.513,8.016-74.667,2.666c-12.104-4.922-12-18.076-12-38.666C25.333,147.462,24.697,137.584,44,133.333z M44,152
		c-2.29,10.308-2.125,29.667,0,40c16.059,3.053,37.734,0.488,56,1.333c4.409-9.286,3.188-30.092,1.333-41.333
		C87.8,147.822,57.477,147.486,44,152z"/>
</g>
</svg>
